<svg width="32" height="32" viewBox="0 0 32 32" fill="none" xmlns="http://www.w3.org/2000/svg">
<path d="M23.9966 29.4899C22.4459 31.0379 20.7527 30.7935 19.1229 30.0602C17.3981 29.3107 15.8157 29.2781 13.996 30.0602C11.7174 31.0705 10.5148 30.7772 9.15392 29.4899C1.43193 21.2939 2.57124 8.81255 11.3376 8.35631C13.4738 8.47037 14.9612 9.56209 16.2113 9.65985C18.0785 9.26879 19.8666 8.14449 21.8604 8.29114C24.2498 8.48667 26.0537 9.46432 27.2405 11.2241C22.3035 14.2711 23.4744 20.9681 28 22.8419C27.098 25.286 25.9271 27.7139 23.9808 29.5062L23.9966 29.4899ZM16.0531 8.25855C15.8157 4.62493 18.6798 1.62679 21.9712 1.3335C22.43 5.53741 18.2684 8.6659 16.0531 8.25855Z" fill="#FB5F2F"/>
</svg>
