<svg width="32" height="32" viewBox="0 0 32 32" fill="none" xmlns="http://www.w3.org/2000/svg">
<path d="M3.18165 1.46255C3.33794 1.37732 3.515 1.33282 3.69505 1.3335C3.8751 1.33419 4.05178 1.38004 4.20735 1.46646L20.2965 10.413L15.3177 14.6839L2.66675 3.8307V2.31125C2.6666 2.1391 2.71413 1.96996 2.80455 1.82093C2.89496 1.67191 3.02504 1.54828 3.18165 1.46255ZM2.66675 6.46285V25.5372L13.7853 16L2.66675 6.46285ZM2.66675 28.1693V29.6888C2.66669 29.8608 2.71426 30.0298 2.80465 30.1787C2.89503 30.3276 3.02503 30.4512 3.18152 30.5369C3.33801 30.6226 3.51546 30.6674 3.69593 30.6668C3.87641 30.6662 4.05352 30.6203 4.2094 30.5336L20.2965 21.587L15.3177 17.3161L2.66675 28.1693ZM22.1571 20.5525L28.8241 16.8448C28.9791 16.7587 29.1077 16.6354 29.197 16.4872C29.2864 16.339 29.3334 16.171 29.3334 16C29.3334 15.829 29.2864 15.6611 29.197 15.5128C29.1077 15.3646 28.9791 15.2413 28.8241 15.1552L22.1571 11.4475L16.8501 16L22.1571 20.5525Z" fill="#FB5F2F"/>
</svg>
