<svg width="20" height="20" viewBox="0 0 20 20" fill="none" xmlns="http://www.w3.org/2000/svg">
<path d="M4.58268 3.33334H15.416C15.803 3.33334 15.9965 3.33334 16.159 3.35473C17.2808 3.50242 18.1636 4.38519 18.3113 5.50703C18.3128 5.51858 18.3142 5.53029 18.3155 5.54222L10.3405 9.93243C10.2173 10.0002 10.1473 10.0384 10.0931 10.0643C10.0595 10.0803 10.0447 10.0853 10.0407 10.0865C10.0134 10.092 9.98529 10.092 9.95801 10.0865C9.95403 10.0853 9.93917 10.0803 9.90562 10.0643C9.85135 10.0384 9.78123 10.0001 9.65798 9.93232L1.68316 5.54222C1.68447 5.5303 1.68588 5.51858 1.6874 5.50703C1.8351 4.38519 2.71787 3.50242 3.8397 3.35473C4.00216 3.33334 4.19567 3.33334 4.58268 3.33334Z" fill="#FF6F2C"/>
<path d="M1.66602 6.95967V12.6667C1.66602 14.0668 1.66602 14.7669 1.9385 15.3017C2.17818 15.7721 2.56063 16.1545 3.03104 16.3942C3.56582 16.6667 4.26588 16.6667 5.66602 16.6667H14.3327C15.7328 16.6667 16.4329 16.6667 16.9677 16.3942C17.4381 16.1545 17.8205 15.7721 18.0602 15.3017C18.3327 14.7669 18.3327 14.0668 18.3327 12.6667V6.95967L10.9433 11.0275L10.8966 11.0533C10.7104 11.1562 10.5114 11.2662 10.2907 11.3112C10.0984 11.3504 9.90025 11.3504 9.70799 11.3112C9.48725 11.2662 9.2883 11.1562 9.1021 11.0533L9.05559 11.0276L1.66602 6.95967Z" fill="#FF6F2C"/>
</svg>
