<svg width="20" height="20" viewBox="0 0 20 20" fill="none" xmlns="http://www.w3.org/2000/svg">
<path d="M5.11486 2.09697L7.81509 5.7791C8.09013 6.15416 7.99663 6.68288 7.60965 6.94086C6.70627 7.54311 6.3383 8.66786 6.95212 9.56342C7.32213 10.1033 7.83683 10.7497 8.54322 11.4561C9.24961 12.1625 9.89607 12.6772 10.4359 13.0472C11.3315 13.6611 12.4562 13.2931 13.0585 12.3897C13.3165 12.0027 13.8452 11.9092 14.2203 12.1843L17.9024 14.8845C18.4921 15.317 18.4723 16.2041 17.8638 16.6098L16.333 17.6303C15.2489 18.353 13.9295 18.6063 12.793 17.9692C11.4891 17.2384 9.49993 15.838 6.83067 13.1687C4.1614 10.4994 2.761 8.51023 2.03016 7.20639C1.39308 6.06983 1.64631 4.75045 2.36905 3.66634L3.38956 2.13558C3.79522 1.52709 4.68238 1.50723 5.11486 2.09697Z" fill="#FF6F2C"/>
</svg>
